<svg xmlns:xlink="http://www.w3.org/1999/xlink" xmlns="http://www.w3.org/2000/svg" viewBox="0 0 828.25 1019.56">
    <title>davcd avatar</title>
    <defs>
        <linearGradient id="a" x1="965.43" y1="589.34" x2="965.43" y2="627.28" gradientUnits="userSpaceOnUse">
            <stop offset="0" stop-color="#b8836f"/>
            <stop offset="1" stop-color="#7d6459" stop-opacity="0"/>
        </linearGradient>
        <linearGradient id="b" x1="233.79" y1="589.34" x2="233.79" y2="627.28" xlink:href="#a"/>
        <linearGradient id="c" x1="590.16" y1="780.4" x2="590.16" y2="1030.45" gradientUnits="userSpaceOnUse">
            <stop offset="0" stop-color="#b8836f"/>
            <stop offset="1" stop-color="#7d6459"/>
        </linearGradient>
        <linearGradient id="d" x1="591.7" y1="985.33" x2="591.7" y2="750.71" xlink:href="#c"/>
        <linearGradient id="e" x1="104.69" y1="439.26" x2="104.69" y2="561.62"
                        gradientTransform="matrix(-1, 0, 0, 1, 872.34, 0)"
                        gradientUnits="userSpaceOnUse">
            <stop offset="0" stop-color="#fff"/>
            <stop offset="1" stop-color="#fff" stop-opacity="0"/>
        </linearGradient>
        <linearGradient id="f" x1="384.72" y1="439.26" x2="384.72" y2="561.62" gradientTransform="translate(41.43)"
                        xlink:href="#e"/>
        <linearGradient id="g" x1="533.6" y1="762.28" x2="654.49" y2="762.28" gradientUnits="userSpaceOnUse">
            <stop offset="0" stop-color="#958e9b"/>
            <stop offset="1" stop-color="#706779"/>
        </linearGradient>
    </defs>
    <path class="a" d="M940.66,600.55c28.34-38.77,47.69-38.84,55.32-14.8,9,28.41-15,178.95-63,205.85Z"
          transform="translate(-185.88 -90.22)"/>
    <path class="b" d="M940.66,600.55c28.34-38.77,47.69-38.84,55.32-14.8,9,28.41-15,178.95-63,205.85Z"
          transform="translate(-185.88 -90.22)"/>
    <path class="a" d="M259.41,600.55c-28.34-38.77-47.69-38.84-55.32-14.8-9,28.41,13.38,178.95,61.33,205.85"
          transform="translate(-185.88 -90.22)"/>
    <path class="c" d="M259.41,600.55c-28.34-38.77-47.69-38.84-55.32-14.8-9,28.41,13.38,178.95,61.33,205.85"
          transform="translate(-185.88 -90.22)"/>
    <path class="a"
          d="M602.3,106.77c-104.48,0-246.2,103.71-306.2,205s-30,398.83-30,398.83,42.33,380,327.3,380,345.11-380,345.11-380,30-297.58-30-398.83S706.78,106.77,602.3,106.77Z"
          transform="translate(-185.88 -90.22)"/>
    <path class="d"
          d="M451.77,1026.55c0-62.38-102.23-156.29-96.59-200.13,17-131.84-12.74-236.54-32.8-315.17s83.5-255.87,68.83-308.36c-20.74,22.06-81.45,85.77-95.12,108.84-60,101.25-30,398.83-30,398.83C264.36,689.63,298.9,950.11,451.77,1026.55Z"
          transform="translate(-185.88 -90.22)"/>
    <path class="d"
          d="M749.08,1044.59c0-62.38,102.23-172.84,96.59-216.68-17-131.84,12.74-236.54,32.8-315.17S795,256.86,809.63,204.37c20.74,22.06,81.45,85.77,95.12,108.84,60,101.25,30,398.83,30,398.83C936.49,691.11,901.95,968.15,749.08,1044.59Z"
          transform="translate(-185.88 -90.22)"/>
    <path class="e"
          d="M431.77,617.71c-16.59,0-31.94-2.74-42.8-7.51A8.28,8.28,0,1,1,395.63,595c25.74,11.31,83.27,8.11,107-19.31a8.27,8.27,0,0,1,12.53,10.81C496,608.73,461.81,617.71,431.77,617.71Z"
          transform="translate(-185.88 -90.22)"/>
    <path class="e"
          d="M750.07,617.71c-30,0-64.18-9-83.34-31.16a8.27,8.27,0,0,1,12.53-10.81c23.69,27.41,81.22,30.6,107,19.31a8.28,8.28,0,1,1,6.66,15.16C782,615,766.66,617.71,750.07,617.71Z"
          transform="translate(-185.88 -90.22)"/>
    <path class="f"
          d="M804.58,850.22c-31,37.57-53.9-74.15-210.51-74.15h-7.8c-156.61,0-179.48,111.72-210.51,74.15S252.27,714.07,252.27,714.07c24.32,213.47,182.18,350.37,283.44,383.87,17.79,5.88,41.12,0,53.83,0,15.4,0,39.42,8.6,62,0,102.11-39,253.12-178.28,276.54-383.83C928.06,714.07,835.61,812.64,804.58,850.22Zm-119,131.45c-46.55,12.67-47.36.95-93.92.95s-50.43,11.72-97-.95-64.27-72.14-64.27-72.14,6.34-16.57,47.9-38.19l95.41,1.93-.27,2.13L614,873.63l-.1-.51,88-1.78c41.57,21.63,47.9,38.19,47.9,38.19S732.16,969,685.61,981.67Z"
          transform="translate(-185.88 -90.22)"/>
    <path class="g"
          d="M638.82,891.6s4.07,32.33-12.86,45.3-21.07,29.18-34.26,29.18-17.33-16.22-34.26-29.18-12.86-45.3-12.86-45.3"
          transform="translate(-185.88 -90.22)"/>
    <path class="a"
          d="M478.35,871.34c22.61-4,51.44-23.54,82.54-23.54s34,8.84,34,8.84,7.79-8.84,32.67-8.84,65,27.53,77.45,27.53c0,0-34.81,36.95-111.29,36.95C512.3,912.27,478.35,871.34,478.35,871.34Z"
          transform="translate(-185.88 -90.22)"/>
    <path class="h"
          d="M478.35,871.34c22.61-4,51.44-23.54,82.54-23.54s34,8.84,34,8.84,7.79-8.84,32.67-8.84,65,27.53,77.45,27.53c0,0-34.81,36.95-111.29,36.95C512.3,912.27,478.35,871.34,478.35,871.34Z"
          transform="translate(-185.88 -90.22)"/>
    <circle class="i" cx="263.32" cy="458.31" r="26.99"/>
    <circle class="j" cx="263.32" cy="458.31" r="9.31"/>
    <path class="k"
          d="M518.51,483.2c11-21.27,6.21-44-73.1-48.85s-118.67,61.19-118.67,61.19,77.86-15.55,109-14.86,66.81,3.8,79.65,8.71Z"
          transform="translate(-185.88 -90.22)"/>
    <circle class="i" cx="546.76" cy="458.31" r="26.99"/>
    <circle class="j" cx="546.76" cy="458.31" r="9.31"/>
    <path class="k"
          d="M663.33,483.2c-11-21.27-6.21-44,73.1-48.85s118.67,61.19,118.67,61.19-77.86-15.55-109-14.86-66.81,3.8-79.65,8.71Z"
          transform="translate(-185.88 -90.22)"/>
    <path class="k"
          d="M605.61,889.59c-54.29,0-112.21-3.59-130.69-10a8.28,8.28,0,1,1,5.45-15.63c28.86,10,177.89,12.34,218.41,3.37a8.28,8.28,0,1,1,3.59,16.16C683.53,887.66,645.55,889.59,605.61,889.59Z"
          transform="translate(-185.88 -90.22)"/>
    <path class="e"
          d="M515.4,540.21a8.25,8.25,0,0,1-5.85-2.42C471.48,499.71,409,508.3,382.7,530.94a8.28,8.28,0,1,1-10.8-12.54c31-26.72,104.64-37,149.35,7.69a8.28,8.28,0,0,1-5.85,14.13Z"
          transform="translate(-185.88 -90.22)"/>
    <path class="e"
          d="M666.44,540.21a8.28,8.28,0,0,1-5.85-14.13c44.72-44.71,118.33-34.41,149.35-7.69a8.28,8.28,0,1,1-10.8,12.54c-26.3-22.65-88.78-31.24-126.85,6.85A8.25,8.25,0,0,1,666.44,540.21Z"
          transform="translate(-185.88 -90.22)"/>
    <path class="k"
          d="M666.44,557.67A8.28,8.28,0,0,1,661,543.16c38.43-33.61,103.37-43.45,138.81-4.46a8.28,8.28,0,0,1-12.25,11.14c-28.9-31.79-83.15-22.68-115.67,5.79A8.23,8.23,0,0,1,666.44,557.67Z"
          transform="translate(-185.88 -90.22)"/>
    <path class="k"
          d="M515.4,557.67a8.23,8.23,0,0,1-5.45-2c-32.54-28.46-86.78-37.56-115.67-5.79A8.28,8.28,0,0,1,382,538.7c35.44-39,100.38-29.15,138.81,4.46a8.28,8.28,0,0,1-5.45,14.51Z"
          transform="translate(-185.88 -90.22)"/>
    <circle class="l" cx="151.94" cy="576.81" r="3.73"/>
    <path class="o"
          d="M696.27,704.78c20.5,10.33,21.91,35.74,15.67,40.28s-15-7.13-16-18.75A108.83,108.83,0,0,1,696.27,704.78Z"
          transform="translate(-185.88 -90.22)"/>
    <circle class="o" cx="550.7" cy="573.84" r="4.16"/>
    <path class="k"
          d="M655.11,687.6a37.37,37.37,0,0,1-5.89-2.38,162.63,162.63,0,0,0-8.67-25.6,8.27,8.27,0,0,0-15.21,6.51c11.25,26.31,13.28,46.17,5.85,57.42-6,9.06-18.57,13.65-37.44,13.65s-31.47-4.59-37.44-13.64c-7.43-11.26-5.4-31.11,5.85-57.43,22.61-52.86,20.58-126.56,20.48-129.67a8.11,8.11,0,0,0-8.53-8,8.27,8.27,0,0,0-8,8.53c0,.73,2,73.19-19.15,122.64a162.78,162.78,0,0,0-8.66,25.6,37.32,37.32,0,0,1-5.9,2.39c-9.05,3-25.89,8.58-22.38,33.88.11.87,2.94,21.55,20.06,31.27a38,38,0,0,0,19,4.79c7.57,0,16-2.08,25.15-5.76a97.25,97.25,0,0,0,39,0c9.11,3.69,17.58,5.76,25.15,5.76a38,38,0,0,0,19-4.79c17.12-9.71,19.95-30.4,20-31.18C681,696.18,664.17,690.6,655.11,687.6ZM538.32,738.4c-9.91-5.55-11.88-18.94-11.9-19.11-1.5-10.77,1.59-12.71,9.11-15.28-.38,11.32,1.87,20.93,7,28.65a39.47,39.47,0,0,0,7.45,8.14C545.52,740.89,541.56,740.22,538.32,738.4Zm122.75-19c0,.14-2,13.39-11.8,19-3.26,1.85-7.25,2.55-11.72,2.46a39.47,39.47,0,0,0,7.46-8.15c5.09-7.72,7.35-17.33,7-28.65C659.49,706.58,662.58,708.53,661.07,719.38Z"
          transform="translate(-185.88 -90.22)"/>
    <ellipse class="r" cx="382.23" cy="897.35" rx="10.71" ry="18.08"
             transform="translate(-461.6 87.11) rotate(-19.35)"/>
    <path class="k"
          d="M1011.76,580.74c-6.14-19.34-17.57-25.56-26.09-27.37-7.42-1.58-15.14-.35-23.09,3.64.58-96.6-7.72-199.53-39.84-253.72C863,202.51,716.73,90.22,602.3,90.22S341.58,202.51,281.86,303.29C248.78,359.11,241.45,468.07,242,559.55q-14.31-9-27.6-6.18c-8.51,1.81-19.95,8-26.08,27.37C178,613.3,200.19,774,257.34,806a16.43,16.43,0,0,0,8.08,2.12c.43,0,.85,0,1.27-.06,4.36,18.6,9.7,38.64,16.19,58.91a178.29,178.29,0,0,0,27.55,53c30.63,40.7,91.22,115.64,152.94,160.09a156.39,156.39,0,0,0,110.52,28.47,171.55,171.55,0,0,1,19.5-1.47,174.75,174.75,0,0,1,19.64,1.47,172.33,172.33,0,0,0,20.34,1.21c31,0,60.71-8.56,85.26-24.8C782.7,1042.55,849,965.73,882.78,923.72a180.22,180.22,0,0,0,32-60c5.47-17.74,10.89-36.38,16.2-55.66a15.07,15.07,0,0,0,2,.13,16.43,16.43,0,0,0,8.08-2.12C998.92,773.6,1022,613.14,1011.76,580.74Zm-791.88,10a21,21,0,0,1,1.94-4.56c2.12.87,7.12,3.7,15,12.6a16.41,16.41,0,0,0,6,4.29c1.87,58.4,6.13,102.64,6.75,108.8l0,.33s0,.08,0,.12,0,.19,0,.34,0,.11,0,.16c.37,3.36,2.39,20.79,6.87,46C228.88,714,213.44,611.08,219.88,590.75Zm707.34,44.59A687.77,687.77,0,0,1,905.38,776c-7.2,27.27-14.66,53.49-22.19,78A147,147,0,0,1,857,903c-32.59,40.51-96.29,114.45-156.63,154.4-23.34,15.46-53,22-83.4,18.32a205.59,205.59,0,0,0-23.56-1.69,203.11,203.11,0,0,0-23.47,1.71,123.37,123.37,0,0,1-87.2-22.47c-60.35-43.46-122.09-121.57-145.84-153.14a145.4,145.4,0,0,1-22.47-43.19c-23-71.9-31-140.69-31.81-147.63v0a.92.92,0,0,1,0-.16c0-.08,0-.15,0-.2h0c-.3-2.92-28.81-293.27,27.77-388.73C365.4,227.24,502,123.32,602.3,123.32s236.9,103.92,292,196.84C933.32,386.07,931.67,545.92,927.22,635.34ZM944.5,754.85A717.92,717.92,0,0,0,960.27,637c.59-11.89,1.1-24.18,1.49-36.73a15.77,15.77,0,0,0,1.48-1.47c7.9-8.9,12.9-11.73,15-12.6a20.53,20.53,0,0,1,1.94,4.56C986.44,610.4,971.31,708,944.5,754.85Z"
          transform="translate(-185.88 -90.22)"/>
</svg>
