<svg xmlns="http://www.w3.org/2000/svg" viewBox="0 0 1000 600">
    <title>davcd logo</title>
    <path d="M407.93,600H300C134.31,600,0,465.69,0,300,0,151.93,107.27,28.91,248.35,4.44l29.82,111.31C183.89,124.26,110,203.5,110,300c0,102.17,82.83,185,185,185,1.67,0,3.34,0,5-.07V485h77.11Z"/>
    <path d="M1000,300c0,144-101.41,264.25-236.7,293.3L733.47,482C819.66,466.23,885,390.74,885,300c0-102.17-82.83-185-185-185H516.08l99.14,370L646,600H527L496.17,485,397,115,366.22,0H700C865.69,0,1000,134.31,1000,300Z"/>
</svg>
