<?xml version="1.0" encoding="utf-8"?>
<!-- Generator: Adobe Illustrator 19.2.1, SVG Export Plug-In . SVG Version: 6.00 Build 0)  -->
<svg version="1.1" id="Capa_1" xmlns="http://www.w3.org/2000/svg" xmlns:xlink="http://www.w3.org/1999/xlink" x="0px" y="0px"
	 viewBox="0 0 1200 1200" style="enable-background:new 0 0 1200 1200;" xml:space="preserve">
<style type="text/css">
	.st0{fill:#F0CCB2;}
	.st1{opacity:0.45;fill:url(#SVGID_1_);}
	.st2{opacity:0.45;fill:url(#SVGID_2_);}
	.st3{opacity:0.4;fill:#E4AE94;}
	.st4{opacity:0.2;fill:#4E4359;}
	.st5{opacity:0.5;fill:url(#SVGID_3_);}
	.st6{opacity:0.45;fill:url(#SVGID_4_);}
	.st7{fill:#AB887A;}
	.st8{opacity:0.75;fill:#FFADAB;}
	.st9{fill:#4E4359;}
	.st10{fill:#593527;}
	.st11{opacity:0.75;}
	.st12{fill:url(#SVGID_5_);}
	.st13{fill:url(#SVGID_6_);}
	.st14{opacity:0.45;fill:#AB887A;}
	.st15{opacity:0.45;fill:url(#SVGID_7_);}
	.st16{fill:#333333;}
	.st17{opacity:0.75;fill:#AB887A;}
</style>
<g>
	<path class="st0" d="M940.7,600.5c28.3-38.8,47.7-38.8,55.3-14.8c9,28.4-15,178.9-63,205.9"/>
	<linearGradient id="SVGID_1_" gradientUnits="userSpaceOnUse" x1="965.4303" y1="589.3448" x2="965.4303" y2="627.2816">
		<stop  offset="0" style="stop-color:#B8836F"/>
		<stop  offset="1" style="stop-color:#7D6459;stop-opacity:0"/>
	</linearGradient>
	<path class="st1" d="M940.7,600.5c28.3-38.8,47.7-38.8,55.3-14.8c9,28.4-15,178.9-63,205.9"/>
	<path class="st0" d="M259.4,600.5c-28.3-38.8-47.7-38.8-55.3-14.8c-9,28.4,13.4,178.9,61.3,205.9"/>
	<linearGradient id="SVGID_2_" gradientUnits="userSpaceOnUse" x1="233.7882" y1="589.3448" x2="233.7882" y2="627.2816">
		<stop  offset="0" style="stop-color:#B8836F"/>
		<stop  offset="1" style="stop-color:#7D6459;stop-opacity:0"/>
	</linearGradient>
	<path class="st2" d="M259.4,600.5c-28.3-38.8-47.7-38.8-55.3-14.8c-9,28.4,13.4,178.9,61.3,205.9"/>
	<path class="st0" d="M602.3,106.8c-104.5,0-246.2,103.7-306.2,205s-30,398.8-30,398.8c0,0,42.3,380,327.3,380s345.1-380,345.1-380
		c0,0,30-297.6-30-398.8S706.8,106.8,602.3,106.8z"/>
	<path class="st3" d="M451.8,1026.6c0-62.4-102.2-156.3-96.6-200.1c17-131.8-12.7-236.5-32.8-315.2c-20-78.6,83.5-255.9,68.8-308.4
		c-20.7,22.1-81.5,85.8-95.1,108.8c-60,101.2-30,398.8-30,398.8C264.4,689.6,298.9,950.1,451.8,1026.6z"/>
	<path class="st3" d="M749.1,1044.6c0-62.4,102.2-172.8,96.6-216.7c-17-131.8,12.7-236.5,32.8-315.2c20-78.6-83.5-255.9-68.8-308.4
		c20.7,22.1,81.5,85.8,95.1,108.8c60,101.2,30,398.8,30,398.8C936.5,691.1,901.9,968.2,749.1,1044.6z"/>
	<path class="st4" d="M431.8,617.7c-16.6,0-31.9-2.7-42.8-7.5c-4.2-1.8-6.1-6.7-4.3-10.9c1.8-4.2,6.7-6.1,10.9-4.3
		c25.7,11.3,83.3,8.1,107-19.3c3-3.5,8.2-3.8,11.7-0.9c3.5,3,3.8,8.2,0.9,11.7C496,608.7,461.8,617.7,431.8,617.7z"/>
	<path class="st4" d="M750.1,617.7c-30,0-64.2-9-83.3-31.2c-3-3.5-2.6-8.7,0.9-11.7c3.4-3,8.7-2.6,11.7,0.9
		c23.7,27.4,81.2,30.6,107,19.3c4.2-1.8,9.1,0.1,10.9,4.3c1.8,4.2-0.1,9.1-4.3,10.9C782,615,766.7,617.7,750.1,617.7z"/>
	<linearGradient id="SVGID_3_" gradientUnits="userSpaceOnUse" x1="590.1625" y1="780.4001" x2="590.1625" y2="1030.4489">
		<stop  offset="0" style="stop-color:#B8836F"/>
		<stop  offset="1" style="stop-color:#7D6459"/>
	</linearGradient>
	<path class="st5" d="M804.6,850.2c-31,37.6-53.9-74.1-210.5-74.1h-7.8c-156.6,0-179.5,111.7-210.5,74.1
		c-31-37.6-123.5-136.2-123.5-136.2c24.3,213.5,182.2,350.4,283.4,383.9c17.8,5.9,41.1,0,53.8,0c15.4,0,39.4,8.6,62,0
		c102.1-39,253.1-178.3,276.5-383.8C928.1,714.1,835.6,812.6,804.6,850.2z M685.6,981.7c-46.6,12.7-47.4,0.9-93.9,0.9
		c-46.6,0-50.4,11.7-97-0.9c-46.6-12.7-64.3-72.1-64.3-72.1s6.3-16.6,47.9-38.2l95.4,1.9l-0.3,2.1l40.5-1.8l-0.1-0.5l88-1.8
		c41.6,21.6,47.9,38.2,47.9,38.2S732.2,969,685.6,981.7z"/>
	<linearGradient id="SVGID_4_" gradientUnits="userSpaceOnUse" x1="591.696" y1="985.3312" x2="591.696" y2="750.7054">
		<stop  offset="0" style="stop-color:#B8836F"/>
		<stop  offset="1" style="stop-color:#7D6459"/>
	</linearGradient>
	<path class="st6" d="M638.8,891.6c0,0,4.1,32.3-12.9,45.3c-16.9,13-21.1,29.2-34.3,29.2c-13.2,0-17.3-16.2-34.3-29.2
		c-16.9-13-12.9-45.3-12.9-45.3"/>
	<circle class="st7" cx="337.8" cy="667" r="3.7"/>
	<path class="st0" d="M478.4,871.3c22.6-4,51.4-23.5,82.5-23.5c31.1,0,34,8.8,34,8.8s7.8-8.8,32.7-8.8c24.9,0,65,27.5,77.4,27.5
		c0,0-34.8,37-111.3,37C512.3,912.3,478.4,871.3,478.4,871.3z"/>
	<path class="st8" d="M478.4,871.3c22.6-4,51.4-23.5,82.5-23.5c31.1,0,34,8.8,34,8.8s7.8-8.8,32.7-8.8c24.9,0,65,27.5,77.4,27.5
		c0,0-34.8,37-111.3,37C512.3,912.3,478.4,871.3,478.4,871.3z"/>
	<path class="st9" d="M266.1,727.1c-8.4,0-15.6-6.4-16.5-14.9c-1.2-12.4-29.8-304.2,32.2-408.9c59.7-100.8,206-213.1,320.4-213.1
		c9.1,0,16.6,7.4,16.6,16.6s-7.4,16.6-16.6,16.6c-100.3,0-236.9,103.9-292,196.8c-56.6,95.5-28.1,385.8-27.8,388.7
		c0.9,9.1-5.7,17.2-14.8,18.1C267.2,727.1,266.6,727.1,266.1,727.1z"/>
	<circle class="st10" cx="449.2" cy="548.5" r="27"/>
	<circle class="st11" cx="449.2" cy="548.5" r="9.3"/>
	<path class="st9" d="M633.4,1109.8c-6.7,0-13.5-0.4-20.3-1.2c-8.2-1-14.8-1.5-19.6-1.5s-11.4,0.5-19.5,1.5
		c-39.2,4.8-78.4-5.4-110.5-28.5c-61.7-44.4-122.3-119.4-152.9-160.1c-12.2-16.2-21.5-34.1-27.5-53
		c-24.8-77.4-32.9-151.5-33.2-154.7c-1-9.1,5.6-17.2,14.7-18.2c9-1,17.2,5.6,18.2,14.7c0.3,3,8.1,73.9,31.9,148.1
		c4.9,15.4,12.5,29.9,22.5,43.2c23.8,31.6,85.5,109.7,145.8,153.1c25.3,18.2,56.3,26.2,87.2,22.5c9.4-1.1,17.3-1.7,23.5-1.7
		c6.2,0,13.9,0.6,23.6,1.7c30.4,3.6,60.1-2.9,83.4-18.3c60.3-40,124-113.9,156.6-154.4c11.9-14.8,20.7-31.3,26.2-49
		c7.5-24.5,15-50.7,22.2-77.9c12.1-46,19.5-93.3,21.8-140.6c4.5-89.4,6.1-249.3-33-315.2c-55.1-92.9-191.6-196.8-292-196.8
		c-9.1,0-16.6-7.4-16.6-16.6s7.4-16.6,16.6-16.6c114.4,0,260.7,112.3,320.4,213.1C964,373,965.9,523.2,960.3,637
		c-2.5,49.6-10.2,99.2-22.9,147.4c-7.3,27.7-14.9,54.4-22.6,79.3c-6.7,21.7-17.5,41.9-32,60c-33.8,42-100.1,118.8-164.1,161.3
		C694.1,1101.2,664.4,1109.8,633.4,1109.8z"/>
	<path class="st9" d="M518.5,483.2c11-21.3,6.2-44-73.1-48.9c-79.3-4.8-118.7,61.2-118.7,61.2s77.9-15.5,109-14.9s66.8,3.8,79.7,8.7
		L518.5,483.2z"/>
	<circle class="st10" cx="732.6" cy="548.5" r="27"/>
	<circle class="st11" cx="732.6" cy="548.5" r="9.3"/>
	<path class="st9" d="M663.3,483.2c-11-21.3-6.2-44,73.1-48.9c79.3-4.8,118.7,61.2,118.7,61.2s-77.9-15.5-109-14.9
		c-31.2,0.7-66.8,3.8-79.7,8.7L663.3,483.2z"/>
	<path class="st9" d="M605.6,889.6c-54.3,0-112.2-3.6-130.7-10c-4.3-1.5-6.6-6.2-5.1-10.5c1.5-4.3,6.2-6.6,10.5-5.1
		c28.9,10,177.9,12.3,218.4,3.4c4.5-1,8.9,1.8,9.9,6.3c1,4.5-1.8,8.9-6.3,9.9C683.5,887.7,645.6,889.6,605.6,889.6z"/>
	<path class="st4" d="M515.4,540.2c-2.1,0-4.2-0.8-5.9-2.4c-38.1-38.1-100.6-29.5-126.9-6.8c-3.5,3-8.7,2.6-11.7-0.9
		c-3-3.5-2.6-8.7,0.9-11.7c31-26.7,104.6-37,149.4,7.7c3.2,3.2,3.2,8.5,0,11.7C519.6,539.4,517.5,540.2,515.4,540.2z"/>
	<path class="st4" d="M666.4,540.2c-2.1,0-4.2-0.8-5.9-2.4c-3.2-3.2-3.2-8.5,0-11.7c44.7-44.7,118.3-34.4,149.4-7.7
		c3.5,3,3.9,8.2,0.9,11.7c-3,3.5-8.2,3.8-11.7,0.9c-26.3-22.7-88.8-31.2-126.9,6.8C670.7,539.4,668.6,540.2,666.4,540.2z"/>
	<path class="st9" d="M666.4,557.7c-2.3,0-4.6-1-6.2-2.8c-3-3.4-2.7-8.7,0.8-11.7c38.4-33.6,103.4-43.4,138.8-4.5
		c3.1,3.4,2.8,8.6-0.6,11.7c-3.4,3.1-8.6,2.8-11.7-0.6c-28.9-31.8-83.1-22.7-115.7,5.8C670.3,557,668.4,557.7,666.4,557.7z"/>
	<path class="st9" d="M515.4,557.7c-1.9,0-3.9-0.7-5.4-2c-32.5-28.5-86.8-37.6-115.7-5.8c-3.1,3.4-8.3,3.6-11.7,0.6
		c-3.4-3.1-3.6-8.3-0.6-11.7c35.4-39,100.4-29.2,138.8,4.5c3.4,3,3.8,8.2,0.8,11.7C520,556.7,517.7,557.7,515.4,557.7z"/>
	<circle class="st7" cx="337.8" cy="667" r="3.7"/>
	
		<linearGradient id="SVGID_5_" gradientUnits="userSpaceOnUse" x1="104.687" y1="439.2614" x2="104.687" y2="561.6226" gradientTransform="matrix(-1 0 0 1 872.3439 0)">
		<stop  offset="0" style="stop-color:#FFFFFF"/>
		<stop  offset="1" style="stop-color:#FFFFFF;stop-opacity:0"/>
	</linearGradient>
	<path class="st12" d="M903.8,493.2c-66.1-22.7-239.6-39.8-268,19.1c-15.4,32,13.1,121.1,61.6,128.9c24.6,4,143.9,13,173.1-15.4
		c29.2-28.4,32.7-128,32.7-128L903.8,493.2z"/>
	
		<linearGradient id="SVGID_6_" gradientUnits="userSpaceOnUse" x1="384.7213" y1="439.2614" x2="384.7213" y2="561.6226" gradientTransform="matrix(1 0 0 1 41.4264 0)">
		<stop  offset="0" style="stop-color:#FFFFFF"/>
		<stop  offset="1" style="stop-color:#FFFFFF;stop-opacity:0"/>
	</linearGradient>
	<path class="st13" d="M290.1,493.2c66.1-22.7,239.6-39.8,268,19.1c15.4,32-13.1,121.1-61.6,128.9c-24.6,4-143.9,13-173.1-15.4
		c-29.2-28.4-32.7-128-32.7-128L290.1,493.2z"/>
	<path class="st14" d="M696.3,704.8c20.5,10.3,21.9,35.7,15.7,40.3c-6.2,4.5-15-7.1-16-18.8C694.9,714.7,696.3,704.8,696.3,704.8z"
		/>
	<circle class="st14" cx="736.6" cy="664.1" r="4.2"/>
	<linearGradient id="SVGID_7_" gradientUnits="userSpaceOnUse" x1="533.5985" y1="762.2795" x2="654.4881" y2="762.2795">
		<stop  offset="0" style="stop-color:#958E9B"/>
		<stop  offset="1" style="stop-color:#706779"/>
	</linearGradient>
	<path class="st15" d="M638.4,757.5c-7.9,0-16.6-2-26.1-5.9h-37.2c-16.4,6.8-30.2,7.5-41.6,2.5c9,6.4,30.4,18.8,61.1,18.8
		c31,0,51.5-12.7,59.8-19C649.6,756.2,644.3,757.5,638.4,757.5z"/>
	<path class="st9" d="M655.1,687.6c-2.3-0.7-4.3-1.5-5.9-2.4c-1.9-7.9-4.7-16.4-8.7-25.6c-1.8-4.2-6.7-6.2-10.9-4.3
		c-4.2,1.8-6.2,6.7-4.3,10.9c11.2,26.3,13.3,46.2,5.9,57.4c-6,9.1-18.6,13.7-37.4,13.7c-18.9,0-31.5-4.6-37.4-13.6
		c-7.4-11.3-5.4-31.1,5.9-57.4c22.6-52.9,20.6-126.6,20.5-129.7c-0.1-4.6-3.9-8.3-8.5-8c-4.6,0.1-8.2,4-8,8.5
		c0,0.7,2,73.2-19.2,122.6c-3.9,9.2-6.7,17.7-8.7,25.6c-1.6,0.8-3.6,1.6-5.9,2.4c-9.1,3-25.9,8.6-22.4,33.9
		c0.1,0.9,2.9,21.6,20.1,31.3c5.6,3.2,12,4.8,19,4.8c7.6,0,16-2.1,25.1-5.8c5.9,1.2,12.3,2,19.5,2c7.2,0,13.6-0.8,19.5-2
		c9.1,3.7,17.6,5.8,25.1,5.8c7,0,13.4-1.6,19-4.8c17.1-9.7,19.9-30.4,20-31.2C681,696.2,664.2,690.6,655.1,687.6z M538.3,738.4
		c-9.9-5.6-11.9-18.9-11.9-19.1c-1.5-10.8,1.6-12.7,9.1-15.3c-0.4,11.3,1.9,20.9,7,28.7c2,3.1,4.6,5.7,7.4,8.1
		C545.5,740.9,541.6,740.2,538.3,738.4z M661.1,719.4c0,0.1-2,13.4-11.8,19c-3.3,1.9-7.2,2.5-11.7,2.5c2.8-2.4,5.4-5,7.5-8.1
		c5.1-7.7,7.3-17.3,7-28.6C659.5,706.6,662.6,708.5,661.1,719.4z"/>
	<path class="st16" d="M980.2,535.1l-48.8-35.3c-0.2-2.6-1.5-5.1-3.8-6.5c-34.3-21-171.4-44-249.3-21.1
		c-25.6,7.5-42.5,19.6-50.3,35.7c-0.3,0.5-0.4,1.2-0.6,1.8c-8.1-2.1-20.3-4.8-29.1-4.8h-2.8c-8.8,0-21,2.7-29,4.8
		c-0.2-0.6-0.4-1.2-0.6-1.8c-7.8-16.1-24.7-28.1-50.3-35.7c-77.9-23-215,0-249.3,21.1c-2.5,1.5-4,4.2-4,7.1v0.1l-34.5,36.7
		c-6.3,6.7-5.9,17.1,0.7,23.4c3.2,3,7.3,4.5,11.3,4.5c4.4,0,8.8-1.7,12.1-5.2l28.6-30.4l3.1-0.2c3.5,33.1,12.2,82.2,33,102.4
		c18.3,17.8,64.6,22.4,106.1,22.4c35.1,0,66.7-3.3,75.1-4.6c21.4-3.5,41.1-20.6,55.5-48.2c9.9-19,15.7-39.9,17.1-58.2
		c8-2.2,19.7-4.9,25.1-4.9h2.8c5.4,0,17.1,2.7,25.1,4.9c1.4,18.4,7.2,39.2,17.1,58.2c14.4,27.6,34.1,44.7,55.5,48.2
		c8.4,1.4,40,4.6,75.1,4.6c41.5,0,87.7-4.6,106.1-22.4c20.8-20.2,29.5-69.3,33-102.4l5.9,0.4l44.7,32.3c2.9,2.1,6.3,3.1,9.7,3.1
		c5.1,0,10.2-2.4,13.4-6.9C989.3,550.8,987.6,540.5,980.2,535.1z M538.6,593.6c-6.9,13.2-21.7,35.9-43.5,39.5
		c-31.7,5.1-142.1,10.9-167-13.3c-21.8-21.2-29.2-93.6-30.3-121.6c50.3-15.4,153.5-27.5,213-10c20.9,6.2,34.4,15.3,40.1,27
		C558.5,530.9,553,566.1,538.6,593.6z M865.6,619.8c-24.9,24.2-135.3,18.4-167,13.3c-21.8-3.5-36.6-26.2-43.5-39.5
		c-14.3-27.5-19.9-62.7-12.3-78.4c5.6-11.7,19.1-20.8,40.1-27c20.8-6.1,47-8.6,74.4-8.6c50.8,0,105.8,8.6,138.5,18.6
		C894.8,526.2,887.4,598.6,865.6,619.8z"/>
	
		<ellipse transform="matrix(0.9435 -0.3313 0.3313 0.9435 -275.7247 177.3283)" class="st17" cx="382.2" cy="897.3" rx="10.7" ry="18.1"/>
	<path class="st9" d="M933,808.1c-5.8,0-11.4-3-14.5-8.5c-4.5-8-1.6-18.1,6.3-22.5c38.6-21.6,62.9-162.4,55.3-186.4
		c-0.7-2.3-1.4-3.7-1.9-4.6c-2.1,0.9-7.1,3.7-15,12.6c-6.1,6.8-16.5,7.5-23.4,1.4c-6.8-6.1-7.5-16.5-1.4-23.4
		c16.6-18.7,32.5-26.6,47.2-23.4c8.5,1.8,20,8,26.1,27.4c10.3,32.4-12.8,192.9-70.6,225.3C938.6,807.5,935.8,808.1,933,808.1z"/>
	<path class="st9" d="M265.4,808.1c-2.7,0-5.5-0.7-8.1-2.1c-57.1-32.1-79.3-192.7-69-225.3c6.1-19.3,17.6-25.6,26.1-27.4
		c14.8-3.2,30.6,4.8,47.2,23.4c6.1,6.8,5.5,17.3-1.4,23.4c-6.8,6.1-17.3,5.5-23.4-1.4c-7.9-8.9-12.9-11.7-15-12.6
		c-0.5,0.8-1.2,2.2-1.9,4.6c-7.7,24.2,15.6,165.1,53.7,186.4c8,4.5,10.8,14.6,6.3,22.5C276.8,805.1,271.2,808.1,265.4,808.1z"/>
</g>
</svg>
